<svg width="246" height="74" viewBox="0 0 246 74" fill="none" xmlns="http://www.w3.org/2000/svg">
<path d="M20.0715 2.95484L1.26801 15.4457L2.87974 16.1173L18.0569 9.13314L24.1009 18.6692L42.3671 9.13314L46.3965 15.4457L71.5126 1.74604V0L54.9923 0.805865L56.6041 4.16364L48.4111 9.13314L44.1132 2.28328L25.8469 12.2223L20.0715 2.95484Z" fill="#8FC442"/>
<path d="M50.6944 66.6182C8.1447 65.5437 4.49144 54.0825 7.98352 48.4862C5.61071 48.1728 0.703909 48.4594 0.0592041 52.1126C-1.68684 64.3349 35.6516 67.5584 50.6944 66.6182Z" fill="#42ADE4"/>
<path d="M26.5184 73.3337C69.7128 70.8624 72.0946 60.1265 67.8862 55.0675C70.7962 55.4256 76.5089 56.9209 76.0791 60.037C74.8703 67.1554 53.5149 75.0798 26.5184 73.3337Z" fill="#8FC442"/>
<path d="M105.312 21.2407L100 4.23253H103.667L107.058 16.7312H107.232L110.853 4.23253H114.189L117.818 16.7395H117.984L121.375 4.23253H125.041L119.73 21.2407H116.367L112.599 9.30676H112.452L108.675 21.2407H105.312Z" fill="#42ADE4"/>
<path d="M127.405 21.2407V4.23253H139.646V6.81532H130.815V11.4328H139.012V14.0156H130.815V18.6579H139.719V21.2407H127.405Z" fill="#42ADE4"/>
<path d="M143.124 21.2407V4.23253H150.329C151.689 4.23253 152.819 4.42631 153.72 4.81387C154.626 5.19589 155.303 5.71909 155.751 6.38347C156.204 7.04786 156.431 7.80082 156.431 8.64237C156.431 9.33444 156.284 9.92685 155.989 10.4196C155.695 10.9068 155.3 11.3027 154.804 11.6072C154.308 11.9117 153.753 12.1304 153.141 12.2633V12.4294C153.808 12.4626 154.449 12.648 155.061 12.9858C155.68 13.318 156.185 13.7886 156.578 14.3976C156.97 15.0066 157.166 15.743 157.166 16.6067C157.166 17.487 156.93 18.2787 156.458 18.9818C155.986 19.6794 155.276 20.2303 154.326 20.6345C153.377 21.0386 152.182 21.2407 150.742 21.2407H143.124ZM146.533 18.6662H150.2C151.438 18.6662 152.329 18.4531 152.874 18.0268C153.426 17.5949 153.701 17.0413 153.701 16.3658C153.701 15.862 153.563 15.408 153.288 15.0038C153.012 14.5941 152.62 14.273 152.111 14.0405C151.603 13.8024 150.996 13.6834 150.292 13.6834H146.533V18.6662ZM146.533 11.466H149.906C150.494 11.466 151.024 11.3691 151.496 11.1753C151.967 10.976 152.338 10.6964 152.608 10.3365C152.883 9.97114 153.021 9.53929 153.021 9.041C153.021 8.38216 152.764 7.83958 152.249 7.41327C151.741 6.98695 150.984 6.7738 149.979 6.7738H146.533V11.466Z" fill="#42ADE4"/>
<path d="M159.305 6.81532V4.23253H174.32V6.81532H168.503V21.2407H165.122V6.81532H159.305Z" fill="#42ADE4"/>
<path d="M177.215 21.2407V4.23253H189.455V6.81532H180.624V11.4328H188.821V14.0156H180.624V18.6579H189.529V21.2407H177.215Z" fill="#42ADE4"/>
<path d="M209.043 9.97114H205.606C205.508 9.46178 205.327 9.01055 205.064 8.61746C204.8 8.21883 204.473 7.8811 204.08 7.60428C203.688 7.32745 203.241 7.11983 202.739 6.98142C202.243 6.83747 201.707 6.76549 201.131 6.76549C200.108 6.76549 199.201 6.99803 198.411 7.46309C197.62 7.92263 197.001 8.59808 196.554 9.48946C196.107 10.3753 195.883 11.4577 195.883 12.7366C195.883 14.0377 196.107 15.1339 196.554 16.0253C197.008 16.9112 197.626 17.5811 198.411 18.0351C199.201 18.4835 200.104 18.7078 201.121 18.7078C201.685 18.7078 202.212 18.6413 202.702 18.5085C203.198 18.37 203.642 18.168 204.035 17.9022C204.433 17.6365 204.767 17.3098 205.036 16.9222C205.312 16.5347 205.502 16.0918 205.606 15.5935L209.043 15.6101C208.914 16.4184 208.635 17.1769 208.207 17.8856C207.784 18.5943 207.229 19.2199 206.543 19.7625C205.857 20.2995 205.055 20.7203 204.136 21.0248C203.217 21.3238 202.197 21.4733 201.076 21.4733C199.421 21.4733 197.945 21.1272 196.646 20.4352C195.347 19.7431 194.324 18.7438 193.577 17.4371C192.829 16.1305 192.456 14.5637 192.456 12.7366C192.456 10.904 192.833 9.33721 193.586 8.03612C194.34 6.72951 195.366 5.73016 196.665 5.0381C197.963 4.34603 199.434 4 201.076 4C202.123 4 203.097 4.13288 203.998 4.39863C204.898 4.66438 205.701 5.05471 206.405 5.5696C207.11 6.07896 207.689 6.70459 208.142 7.44649C208.602 8.18284 208.902 9.02439 209.043 9.97114Z" fill="#42ADE4"/>
<path d="M212.165 21.2407V4.23253H215.574V11.4328H224.295V4.23253H227.714V21.2407H224.295V14.0156H215.574V21.2407H212.165Z" fill="#42ADE4"/>
<path d="M110.723 37.2856C110.639 36.5614 110.284 35.9975 109.657 35.5939C109.037 35.1903 108.23 34.9885 107.236 34.9885C106.538 34.9885 105.938 35.0852 105.438 35.2787C104.939 35.4723 104.556 35.7349 104.291 36.0666C104.026 36.3983 103.891 36.777 103.885 37.2027C103.885 37.5565 103.972 37.8634 104.147 38.1232C104.327 38.3831 104.571 38.6042 104.878 38.7867C105.186 38.9636 105.526 39.1129 105.899 39.2345C106.273 39.3561 106.649 39.4584 107.028 39.5413L108.763 39.9394C109.462 40.0887 110.133 40.2905 110.778 40.5448C111.428 40.7991 112.009 41.1198 112.521 41.5068C113.039 41.8938 113.449 42.3609 113.75 42.9083C114.051 43.4556 114.201 44.0969 114.201 44.8322C114.201 45.8274 113.924 46.7037 113.37 47.4611C112.816 48.213 112.015 48.8018 110.967 49.2275C109.925 49.6477 108.664 49.8578 107.182 49.8578C105.743 49.8578 104.493 49.6532 103.433 49.2441C102.379 48.835 101.554 48.2379 100.958 47.4528C100.367 46.6677 100.048 45.7113 100 44.5834H103.297C103.346 45.175 103.544 45.6671 103.894 46.0596C104.243 46.4521 104.698 46.7451 105.258 46.9386C105.824 47.1321 106.456 47.2289 107.155 47.2289C107.884 47.2289 108.522 47.1294 109.07 46.9304C109.624 46.7258 110.058 46.4438 110.371 46.0845C110.684 45.7196 110.844 45.2939 110.85 44.8074C110.844 44.3651 110.702 44.0002 110.425 43.7127C110.148 43.4197 109.76 43.1764 109.26 42.9829C108.766 42.7839 108.188 42.607 107.525 42.4522L105.42 41.9546C103.897 41.5952 102.692 41.0506 101.807 40.3209C100.927 39.5856 100.488 38.6098 100.488 37.3935C100.488 36.3928 100.783 35.5165 101.373 34.7646C101.969 34.0127 102.779 33.4294 103.803 33.0148C104.827 32.5946 105.987 32.3845 107.281 32.3845C108.594 32.3845 109.745 32.5946 110.732 33.0148C111.726 33.4294 112.506 34.0072 113.072 34.748C113.638 35.4833 113.93 36.3292 113.948 37.2856H110.723Z" fill="#42ADE4"/>
<path d="M133.722 41.1087C133.722 42.9387 133.348 44.506 132.601 45.8108C131.861 47.11 130.849 48.1052 129.566 48.7963C128.289 49.4874 126.841 49.8329 125.221 49.8329C123.601 49.8329 122.149 49.4874 120.866 48.7963C119.589 48.0997 118.578 47.1017 117.831 45.8025C117.09 44.4978 116.72 42.9331 116.72 41.1087C116.72 39.2787 117.09 37.7141 117.831 36.4149C118.578 35.1101 119.589 34.1122 120.866 33.4211C122.149 32.73 123.601 32.3845 125.221 32.3845C126.841 32.3845 128.289 32.73 129.566 33.4211C130.849 34.1122 131.861 35.1101 132.601 36.4149C133.348 37.7141 133.722 39.2787 133.722 41.1087ZM130.352 41.1087C130.352 39.8205 130.132 38.7341 129.692 37.8496C129.259 36.9595 128.657 36.2877 127.886 35.8344C127.115 35.3755 126.226 35.1461 125.221 35.1461C124.215 35.1461 123.327 35.3755 122.556 35.8344C121.785 36.2877 121.179 36.9595 120.74 37.8496C120.306 38.7341 120.089 39.8205 120.089 41.1087C120.089 42.3969 120.306 43.486 120.74 44.3761C121.179 45.2607 121.785 45.9324 122.556 46.3913C123.327 46.8447 124.215 47.0713 125.221 47.0713C126.226 47.0713 127.115 46.8447 127.886 46.3913C128.657 45.9324 129.259 45.2607 129.692 44.3761C130.132 43.486 130.352 42.3969 130.352 41.1087Z" fill="#42ADE4"/>
<path d="M136.89 49.6007V32.6167H140.242V47.0216H148.391V49.6007H136.89Z" fill="#42ADE4"/>
<path d="M162.962 32.6167H166.314V43.7127C166.314 44.929 166.001 45.9988 165.375 46.9221C164.754 47.8453 163.881 48.5668 162.755 49.0865C161.628 49.6007 160.312 49.8578 158.807 49.8578C157.295 49.8578 155.976 49.6007 154.85 49.0865C153.724 48.5668 152.85 47.8453 152.23 46.9221C151.61 45.9988 151.3 44.929 151.3 43.7127V32.6167H154.651V43.4556C154.651 44.1633 154.82 44.7935 155.157 45.3464C155.5 45.8993 155.982 46.3333 156.603 46.6484C157.223 46.958 157.958 47.1128 158.807 47.1128C159.656 47.1128 160.391 46.958 161.011 46.6484C161.637 46.3333 162.119 45.8993 162.457 45.3464C162.794 44.7935 162.962 44.1633 162.962 43.4556V32.6167Z" fill="#42ADE4"/>
<path d="M169.144 35.1958V32.6167H183.906V35.1958H178.187V49.6007H174.862V35.1958H169.144Z" fill="#42ADE4"/>
<path d="M190.103 32.6167V49.6007H186.751V32.6167H190.103Z" fill="#42ADE4"/>
<path d="M210.264 41.1087C210.264 42.9387 209.891 44.506 209.144 45.8108C208.403 47.11 207.392 48.1052 206.109 48.7963C204.832 49.4874 203.384 49.8329 201.763 49.8329C200.143 49.8329 198.692 49.4874 197.409 48.7963C196.132 48.0997 195.12 47.1017 194.374 45.8025C193.633 44.4978 193.262 42.9331 193.262 41.1087C193.262 39.2787 193.633 37.7141 194.374 36.4149C195.12 35.1101 196.132 34.1122 197.409 33.4211C198.692 32.73 200.143 32.3845 201.763 32.3845C203.384 32.3845 204.832 32.73 206.109 33.4211C207.392 34.1122 208.403 35.1101 209.144 36.4149C209.891 37.7141 210.264 39.2787 210.264 41.1087ZM206.895 41.1087C206.895 39.8205 206.675 38.7341 206.235 37.8496C205.802 36.9595 205.199 36.2877 204.429 35.8344C203.658 35.3755 202.769 35.1461 201.763 35.1461C200.758 35.1461 199.869 35.3755 199.098 35.8344C198.328 36.2877 197.722 36.9595 197.283 37.8496C196.849 38.7341 196.632 39.8205 196.632 41.1087C196.632 42.3969 196.849 43.486 197.283 44.3761C197.722 45.2607 198.328 45.9324 199.098 46.3913C199.869 46.8447 200.758 47.0713 201.763 47.0713C202.769 47.0713 203.658 46.8447 204.429 46.3913C205.199 45.9324 205.802 45.2607 206.235 44.3761C206.675 43.486 206.895 42.3969 206.895 41.1087Z" fill="#42ADE4"/>
<path d="M228.637 32.6167V49.6007H225.656L216.938 38.032H216.785V49.6007H213.433V32.6167H216.432L225.141 44.1937H225.304V32.6167H228.637Z" fill="#42ADE4"/>
<path d="M242.344 37.2856C242.26 36.5614 241.905 35.9975 241.278 35.5939C240.658 35.1903 239.851 34.9885 238.857 34.9885C238.158 34.9885 237.559 35.0852 237.059 35.2787C236.559 35.4723 236.177 35.7349 235.912 36.0666C235.647 36.3983 235.512 36.777 235.505 37.2027C235.505 37.5565 235.593 37.8634 235.767 38.1232C235.948 38.3831 236.192 38.6042 236.499 38.7867C236.806 38.9636 237.147 39.1129 237.52 39.2345C237.893 39.3561 238.27 39.4584 238.649 39.5413L240.384 39.9394C241.082 40.0887 241.754 40.2905 242.398 40.5448C243.049 40.7991 243.63 41.1198 244.142 41.5068C244.66 41.8938 245.069 42.3609 245.371 42.9083C245.672 43.4556 245.822 44.0969 245.822 44.8322C245.822 45.8274 245.545 46.7037 244.991 47.4611C244.437 48.213 243.636 48.8018 242.588 49.2275C241.546 49.6477 240.284 49.8578 238.803 49.8578C237.363 49.8578 236.114 49.6532 235.054 49.2441C234 48.835 233.175 48.2379 232.578 47.4528C231.988 46.6677 231.669 45.7113 231.621 44.5834H234.918C234.966 45.175 235.165 45.6671 235.515 46.0596C235.864 46.4521 236.319 46.7451 236.879 46.9386C237.445 47.1321 238.077 47.2289 238.776 47.2289C239.505 47.2289 240.143 47.1294 240.691 46.9304C241.245 46.7258 241.679 46.4438 241.992 46.0845C242.305 45.7196 242.465 45.2939 242.471 44.8074C242.465 44.3651 242.323 44.0002 242.046 43.7127C241.769 43.4197 241.381 43.1764 240.881 42.9829C240.387 42.7839 239.809 42.607 239.146 42.4522L237.041 41.9546C235.518 41.5952 234.313 41.0506 233.428 40.3209C232.548 39.5856 232.109 38.6098 232.109 37.3935C232.109 36.3928 232.404 35.5165 232.994 34.7646C233.59 34.0127 234.4 33.4294 235.424 33.0148C236.448 32.5946 237.607 32.3845 238.902 32.3845C240.215 32.3845 241.366 32.5946 242.353 33.0148C243.347 33.4294 244.127 34.0072 244.693 34.748C245.259 35.4833 245.551 36.3292 245.569 37.2856H242.344Z" fill="#42ADE4"/>
<path d="M101.884 61.1785V68.4037H100.794V61.1785H101.884ZM106.483 62.9848V63.8315H103.523V62.9848H106.483ZM104.316 61.6865H105.371V66.8126C105.371 67.0172 105.402 67.1712 105.463 67.2747C105.524 67.3759 105.603 67.4452 105.699 67.4829C105.798 67.5182 105.905 67.5358 106.02 67.5358C106.105 67.5358 106.179 67.5299 106.243 67.5182C106.306 67.5064 106.356 67.497 106.391 67.4899L106.581 68.3613C106.52 68.3848 106.433 68.4084 106.32 68.4319C106.207 68.4578 106.066 68.4719 105.897 68.4742C105.619 68.4789 105.361 68.4295 105.121 68.326C104.881 68.2226 104.687 68.0626 104.539 67.8462C104.391 67.6299 104.316 67.3582 104.316 67.0313V61.6865ZM109.394 61.1785V61.8559C109.394 62.0558 109.356 62.2663 109.281 62.4874C109.208 62.7061 109.105 62.9166 108.971 63.1189C108.837 63.3211 108.679 63.4952 108.498 63.641L107.976 63.267C108.115 63.0648 108.235 62.8496 108.336 62.6214C108.439 62.3933 108.491 62.1416 108.491 61.8664V61.1785H109.394ZM114.356 64.3078L113.4 64.4771C113.36 64.3548 113.297 64.2384 113.209 64.1278C113.125 64.0173 113.01 63.9267 112.864 63.8562C112.718 63.7856 112.536 63.7503 112.317 63.7503C112.018 63.7503 111.769 63.8174 111.569 63.9514C111.369 64.0831 111.269 64.2537 111.269 64.463C111.269 64.6441 111.336 64.7899 111.47 64.9004C111.604 65.011 111.821 65.1015 112.119 65.1721L112.98 65.3697C113.479 65.4849 113.85 65.6625 114.095 65.9024C114.34 66.1423 114.462 66.4539 114.462 66.8373C114.462 67.1618 114.368 67.4511 114.18 67.7051C113.994 67.9568 113.734 68.1544 113.4 68.2978C113.068 68.4413 112.684 68.513 112.246 68.513C111.64 68.513 111.144 68.3837 110.761 68.125C110.378 67.8639 110.143 67.4935 110.056 67.0137L111.075 66.8584C111.139 67.1242 111.269 67.3253 111.467 67.4617C111.664 67.5958 111.922 67.6628 112.239 67.6628C112.585 67.6628 112.861 67.5911 113.068 67.4476C113.275 67.3018 113.379 67.1242 113.379 66.9149C113.379 66.7455 113.315 66.6032 113.188 66.488C113.064 66.3728 112.872 66.2857 112.613 66.2269L111.696 66.0258C111.19 65.9106 110.816 65.7272 110.574 65.4755C110.334 65.2238 110.214 64.9052 110.214 64.5194C110.214 64.1996 110.304 63.9197 110.482 63.6798C110.661 63.4399 110.908 63.2529 111.223 63.1189C111.538 62.9824 111.899 62.9142 112.306 62.9142C112.892 62.9142 113.353 63.0412 113.689 63.2952C114.026 63.5469 114.248 63.8844 114.356 64.3078ZM125.3 61.1785V68.4037H124.298L120.625 63.1047H120.558V68.4037H119.468V61.1785H120.477L124.153 66.4845H124.22V61.1785H125.3ZM129.707 68.513C129.173 68.513 128.713 68.399 128.328 68.1708C127.944 67.9403 127.648 67.6169 127.439 67.2006C127.232 66.782 127.128 66.2916 127.128 65.7295C127.128 65.1744 127.232 64.6852 127.439 64.2619C127.648 63.8385 127.939 63.5081 128.313 63.2706C128.69 63.033 129.13 62.9142 129.633 62.9142C129.939 62.9142 130.235 62.9648 130.522 63.0659C130.809 63.1671 131.066 63.3258 131.295 63.5422C131.523 63.7586 131.703 64.0396 131.834 64.3854C131.966 64.7288 132.032 65.1462 132.032 65.6378V66.0117H127.724V65.2215H130.998C130.998 64.944 130.942 64.6982 130.829 64.4842C130.716 64.2678 130.557 64.0973 130.353 63.9726C130.15 63.848 129.913 63.7856 129.64 63.7856C129.344 63.7856 129.085 63.8585 128.864 64.0044C128.645 64.1478 128.476 64.336 128.356 64.5688C128.238 64.7993 128.179 65.0498 128.179 65.3203V65.9377C128.179 66.2998 128.243 66.608 128.37 66.862C128.499 67.116 128.679 67.31 128.91 67.4441C129.14 67.5758 129.409 67.6416 129.718 67.6416C129.917 67.6416 130.1 67.6134 130.264 67.557C130.429 67.4982 130.571 67.4111 130.691 67.2959C130.811 67.1806 130.903 67.0384 130.966 66.869L131.965 67.0489C131.885 67.3429 131.741 67.6005 131.534 67.8216C131.33 68.0403 131.072 68.2108 130.762 68.3331C130.454 68.453 130.102 68.513 129.707 68.513ZM138.249 62.9848L136.284 68.4037H135.155L133.186 62.9848H134.319L135.691 67.1548H135.748L137.117 62.9848H138.249ZM141.958 68.513C141.424 68.513 140.964 68.399 140.578 68.1708C140.195 67.9403 139.899 67.6169 139.689 67.2006C139.482 66.782 139.379 66.2916 139.379 65.7295C139.379 65.1744 139.482 64.6852 139.689 64.2619C139.899 63.8385 140.19 63.5081 140.564 63.2706C140.94 63.033 141.38 62.9142 141.884 62.9142C142.189 62.9142 142.486 62.9648 142.773 63.0659C143.06 63.1671 143.317 63.3258 143.545 63.5422C143.773 63.7586 143.953 64.0396 144.085 64.3854C144.217 64.7288 144.283 65.1462 144.283 65.6378V66.0117H139.975V65.2215H143.249C143.249 64.944 143.192 64.6982 143.08 64.4842C142.967 64.2678 142.808 64.0973 142.603 63.9726C142.401 63.848 142.164 63.7856 141.891 63.7856C141.594 63.7856 141.336 63.8585 141.115 64.0044C140.896 64.1478 140.726 64.336 140.607 64.5688C140.489 64.7993 140.43 65.0498 140.43 65.3203V65.9377C140.43 66.2998 140.494 66.608 140.621 66.862C140.75 67.116 140.93 67.31 141.16 67.4441C141.391 67.5758 141.66 67.6416 141.968 67.6416C142.168 67.6416 142.35 67.6134 142.515 67.557C142.68 67.4982 142.822 67.4111 142.942 67.2959C143.062 67.1806 143.154 67.0384 143.217 66.869L144.216 67.0489C144.136 67.3429 143.992 67.6005 143.785 67.8216C143.581 68.0403 143.323 68.2108 143.013 68.3331C142.704 68.453 142.353 68.513 141.958 68.513ZM146.019 68.4037V62.9848H147.039V63.8456H147.095C147.194 63.554 147.368 63.3246 147.617 63.1577C147.869 62.9883 148.154 62.9037 148.471 62.9037C148.537 62.9037 148.615 62.906 148.704 62.9107C148.796 62.9154 148.867 62.9213 148.919 62.9283V63.9373C148.877 63.9256 148.802 63.9126 148.693 63.8985C148.585 63.8821 148.477 63.8738 148.369 63.8738C148.12 63.8738 147.897 63.9267 147.702 64.0326C147.509 64.1361 147.356 64.2807 147.243 64.4665C147.131 64.65 147.074 64.8593 147.074 65.0945V68.4037H146.019ZM153.322 62.1169V61.1785H158.914V62.1169H156.659V68.4037H155.573V62.1169H153.322ZM162.128 68.513C161.62 68.513 161.176 68.3966 160.798 68.1638C160.419 67.9309 160.125 67.6052 159.916 67.1865C159.706 66.7679 159.602 66.2787 159.602 65.7189C159.602 65.1568 159.706 64.6653 159.916 64.2443C160.125 63.8233 160.419 63.4963 160.798 63.2635C161.176 63.0307 161.62 62.9142 162.128 62.9142C162.636 62.9142 163.079 63.0307 163.458 63.2635C163.836 63.4963 164.13 63.8233 164.34 64.2443C164.549 64.6653 164.654 65.1568 164.654 65.7189C164.654 66.2787 164.549 66.7679 164.34 67.1865C164.13 67.6052 163.836 67.9309 163.458 68.1638C163.079 68.3966 162.636 68.513 162.128 68.513ZM162.131 67.6275C162.461 67.6275 162.733 67.5405 162.95 67.3665C163.166 67.1924 163.326 66.9607 163.43 66.6715C163.535 66.3822 163.588 66.0635 163.588 65.7154C163.588 65.3697 163.535 65.0521 163.43 64.7629C163.326 64.4712 163.166 64.2372 162.95 64.0608C162.733 63.8844 162.461 63.7962 162.131 63.7962C161.8 63.7962 161.525 63.8844 161.306 64.0608C161.089 64.2372 160.928 64.4712 160.822 64.7629C160.719 65.0521 160.667 65.3697 160.667 65.7154C160.667 66.0635 160.719 66.3822 160.822 66.6715C160.928 66.9607 161.089 67.1924 161.306 67.3665C161.525 67.5405 161.8 67.6275 162.131 67.6275ZM168.68 68.513C168.172 68.513 167.729 68.3966 167.35 68.1638C166.971 67.9309 166.677 67.6052 166.468 67.1865C166.259 66.7679 166.154 66.2787 166.154 65.7189C166.154 65.1568 166.259 64.6653 166.468 64.2443C166.677 63.8233 166.971 63.4963 167.35 63.2635C167.729 63.0307 168.172 62.9142 168.68 62.9142C169.188 62.9142 169.631 63.0307 170.01 63.2635C170.389 63.4963 170.683 63.8233 170.892 64.2443C171.101 64.6653 171.206 65.1568 171.206 65.7189C171.206 66.2787 171.101 66.7679 170.892 67.1865C170.683 67.6052 170.389 67.9309 170.01 68.1638C169.631 68.3966 169.188 68.513 168.68 68.513ZM168.684 67.6275C169.013 67.6275 169.286 67.5405 169.502 67.3665C169.718 67.1924 169.878 66.9607 169.982 66.6715C170.088 66.3822 170.141 66.0635 170.141 65.7154C170.141 65.3697 170.088 65.0521 169.982 64.7629C169.878 64.4712 169.718 64.2372 169.502 64.0608C169.286 63.8844 169.013 63.7962 168.684 63.7962C168.352 63.7962 168.077 63.8844 167.858 64.0608C167.642 64.2372 167.481 64.4712 167.375 64.7629C167.271 65.0521 167.219 65.3697 167.219 65.7154C167.219 66.0635 167.271 66.3822 167.375 66.6715C167.481 66.9607 167.642 67.1924 167.858 67.3665C168.077 67.5405 168.352 67.6275 168.684 67.6275ZM176.23 68.4037V61.1785H177.32V67.4652H180.594V68.4037H176.23ZM183.896 68.5236C183.553 68.5236 183.242 68.4601 182.965 68.3331C182.687 68.2037 182.467 68.0168 182.305 67.7722C182.145 67.5276 182.065 67.2277 182.065 66.8725C182.065 66.5668 182.124 66.3151 182.241 66.1176C182.359 65.92 182.518 65.7636 182.718 65.6484C182.918 65.5331 183.141 65.4461 183.388 65.3873C183.635 65.3285 183.887 65.2838 184.143 65.2532C184.468 65.2156 184.731 65.185 184.933 65.1615C185.135 65.1356 185.282 65.0945 185.374 65.038C185.466 64.9816 185.512 64.8899 185.512 64.7629V64.7382C185.512 64.4301 185.425 64.1913 185.251 64.022C185.079 63.8527 184.823 63.768 184.482 63.768C184.127 63.768 183.847 63.8468 183.642 64.0044C183.44 64.1596 183.3 64.3325 183.222 64.523L182.231 64.2972C182.348 63.9679 182.52 63.7021 182.746 63.4999C182.974 63.2952 183.236 63.1471 183.533 63.0554C183.829 62.9613 184.141 62.9142 184.468 62.9142C184.684 62.9142 184.913 62.9401 185.155 62.9919C185.4 63.0412 185.628 63.133 185.84 63.267C186.054 63.4011 186.229 63.5928 186.366 63.8421C186.502 64.089 186.57 64.4101 186.57 64.8052V68.4037H185.54V67.6628H185.498C185.429 67.7992 185.327 67.9333 185.191 68.065C185.054 68.1967 184.879 68.3061 184.665 68.3931C184.451 68.4801 184.195 68.5236 183.896 68.5236ZM184.125 67.6769C184.417 67.6769 184.666 67.6193 184.873 67.504C185.083 67.3888 185.241 67.2383 185.35 67.0525C185.46 66.8643 185.515 66.6632 185.515 66.4492V65.7507C185.478 65.7883 185.405 65.8236 185.297 65.8565C185.191 65.8871 185.07 65.9141 184.933 65.9377C184.797 65.9588 184.664 65.9788 184.535 65.9976C184.405 66.0141 184.297 66.0282 184.21 66.04C184.005 66.0658 183.818 66.1093 183.649 66.1705C183.482 66.2316 183.348 66.3198 183.247 66.4351C183.148 66.548 183.099 66.6985 183.099 66.8867C183.099 67.1477 183.195 67.3453 183.388 67.4793C183.581 67.6111 183.827 67.6769 184.125 67.6769ZM191.071 62.9848V63.8315H188.111V62.9848H191.071ZM188.905 61.6865H189.96V66.8126C189.96 67.0172 189.99 67.1712 190.051 67.2747C190.113 67.3759 190.191 67.4452 190.288 67.4829C190.387 67.5182 190.494 67.5358 190.609 67.5358C190.693 67.5358 190.768 67.5299 190.831 67.5182C190.895 67.5064 190.944 67.497 190.979 67.4899L191.17 68.3613C191.109 68.3848 191.022 68.4084 190.909 68.4319C190.796 68.4578 190.655 68.4719 190.485 68.4742C190.208 68.4789 189.949 68.4295 189.709 68.326C189.469 68.2226 189.275 68.0626 189.127 67.8462C188.979 67.6299 188.905 67.3582 188.905 67.0313V61.6865ZM195.081 68.513C194.547 68.513 194.088 68.399 193.702 68.1708C193.319 67.9403 193.022 67.6169 192.813 67.2006C192.606 66.782 192.502 66.2916 192.502 65.7295C192.502 65.1744 192.606 64.6852 192.813 64.2619C193.022 63.8385 193.314 63.5081 193.688 63.2706C194.064 63.033 194.504 62.9142 195.007 62.9142C195.313 62.9142 195.609 62.9648 195.896 63.0659C196.183 63.1671 196.441 63.3258 196.669 63.5422C196.897 63.7586 197.077 64.0396 197.209 64.3854C197.34 64.7288 197.406 65.1462 197.406 65.6378V66.0117H193.099V65.2215H196.373C196.373 64.944 196.316 64.6982 196.203 64.4842C196.09 64.2678 195.932 64.0973 195.727 63.9726C195.525 63.848 195.287 63.7856 195.014 63.7856C194.718 63.7856 194.459 63.8585 194.238 64.0044C194.019 64.1478 193.85 64.336 193.73 64.5688C193.613 64.7993 193.554 65.0498 193.554 65.3203V65.9377C193.554 66.2998 193.617 66.608 193.744 66.862C193.874 67.116 194.054 67.31 194.284 67.4441C194.515 67.5758 194.784 67.6416 195.092 67.6416C195.292 67.6416 195.474 67.6134 195.639 67.557C195.803 67.4982 195.946 67.4111 196.066 67.2959C196.186 67.1806 196.277 67.0384 196.341 66.869L197.339 67.0489C197.259 67.3429 197.116 67.6005 196.909 67.8216C196.704 68.0403 196.447 68.2108 196.136 68.3331C195.828 68.453 195.476 68.513 195.081 68.513ZM202.067 62.1169V61.1785H207.658V62.1169H205.404V68.4037H204.317V62.1169H202.067ZM210.872 68.513C210.364 68.513 209.921 68.3966 209.542 68.1638C209.164 67.9309 208.87 67.6052 208.66 67.1865C208.451 66.7679 208.346 66.2787 208.346 65.7189C208.346 65.1568 208.451 64.6653 208.66 64.2443C208.87 63.8233 209.164 63.4963 209.542 63.2635C209.921 63.0307 210.364 62.9142 210.872 62.9142C211.38 62.9142 211.824 63.0307 212.202 63.2635C212.581 63.4963 212.875 63.8233 213.084 64.2443C213.294 64.6653 213.398 65.1568 213.398 65.7189C213.398 66.2787 213.294 66.7679 213.084 67.1865C212.875 67.6052 212.581 67.9309 212.202 68.1638C211.824 68.3966 211.38 68.513 210.872 68.513ZM210.876 67.6275C211.205 67.6275 211.478 67.5405 211.694 67.3665C211.911 67.1924 212.071 66.9607 212.174 66.6715C212.28 66.3822 212.333 66.0635 212.333 65.7154C212.333 65.3697 212.28 65.0521 212.174 64.7629C212.071 64.4712 211.911 64.2372 211.694 64.0608C211.478 63.8844 211.205 63.7962 210.876 63.7962C210.544 63.7962 210.269 63.8844 210.05 64.0608C209.834 64.2372 209.673 64.4712 209.567 64.7629C209.464 65.0521 209.412 65.3697 209.412 65.7154C209.412 66.0635 209.464 66.3822 209.567 66.6715C209.673 66.9607 209.834 67.1924 210.05 67.3665C210.269 67.5405 210.544 67.6275 210.876 67.6275ZM222.363 63.0765C222.325 62.7425 222.17 62.4838 221.897 62.3004C221.624 62.1146 221.281 62.0217 220.867 62.0217C220.571 62.0217 220.314 62.0687 220.098 62.1628C219.882 62.2545 219.713 62.3815 219.593 62.5438C219.476 62.7037 219.417 62.886 219.417 63.0906C219.417 63.2623 219.457 63.4105 219.537 63.5351C219.619 63.6598 219.726 63.7645 219.858 63.8491C219.992 63.9314 220.136 64.0008 220.288 64.0573C220.441 64.1114 220.588 64.1561 220.729 64.1913L221.435 64.3748C221.665 64.4312 221.902 64.5077 222.144 64.6041C222.386 64.7005 222.611 64.8275 222.818 64.9851C223.025 65.1427 223.192 65.3379 223.319 65.5707C223.448 65.8036 223.513 66.0823 223.513 66.4069C223.513 66.8161 223.407 67.1795 223.195 67.497C222.986 67.8145 222.682 68.065 222.282 68.2484C221.884 68.4319 221.403 68.5236 220.839 68.5236C220.298 68.5236 219.83 68.4378 219.435 68.2661C219.04 68.0944 218.73 67.851 218.507 67.5358C218.283 67.2183 218.16 66.842 218.136 66.4069H219.23C219.251 66.6679 219.336 66.8855 219.484 67.0595C219.635 67.2312 219.826 67.3594 220.059 67.4441C220.294 67.5264 220.552 67.5675 220.832 67.5675C221.14 67.5675 221.414 67.5193 221.654 67.4229C221.896 67.3241 222.086 67.1877 222.225 67.0137C222.364 66.8373 222.433 66.6315 222.433 66.3963C222.433 66.1823 222.372 66.007 222.25 65.8706C222.13 65.7342 221.967 65.6213 221.76 65.5319C221.555 65.4426 221.323 65.3638 221.065 65.2956L220.211 65.0627C219.632 64.9052 219.174 64.6735 218.835 64.3677C218.499 64.062 218.33 63.6574 218.33 63.1541C218.33 62.7378 218.443 62.3745 218.669 62.064C218.895 61.7536 219.201 61.5125 219.586 61.3408C219.972 61.1667 220.407 61.0797 220.892 61.0797C221.381 61.0797 221.812 61.1656 222.186 61.3373C222.563 61.509 222.859 61.7453 223.075 62.0464C223.292 62.3451 223.405 62.6884 223.414 63.0765H222.363ZM227.827 62.9848V63.8315H224.867V62.9848H227.827ZM225.661 61.6865H226.715V66.8126C226.715 67.0172 226.746 67.1712 226.807 67.2747C226.868 67.3759 226.947 67.4452 227.044 67.4829C227.142 67.5182 227.249 67.5358 227.365 67.5358C227.449 67.5358 227.523 67.5299 227.587 67.5182C227.65 67.5064 227.7 67.497 227.735 67.4899L227.925 68.3613C227.864 68.3848 227.777 68.4084 227.664 68.4319C227.552 68.4578 227.41 68.4719 227.241 68.4742C226.964 68.4789 226.705 68.4295 226.465 68.326C226.225 68.2226 226.031 68.0626 225.883 67.8462C225.735 67.6299 225.661 67.3582 225.661 67.0313V61.6865ZM231.137 68.5236C230.793 68.5236 230.483 68.4601 230.205 68.3331C229.928 68.2037 229.708 68.0168 229.546 67.7722C229.386 67.5276 229.306 67.2277 229.306 66.8725C229.306 66.5668 229.365 66.3151 229.482 66.1176C229.6 65.92 229.759 65.7636 229.958 65.6484C230.158 65.5331 230.382 65.4461 230.629 65.3873C230.876 65.3285 231.127 65.2838 231.384 65.2532C231.708 65.2156 231.972 65.185 232.174 65.1615C232.376 65.1356 232.523 65.0945 232.615 65.038C232.707 64.9816 232.753 64.8899 232.753 64.7629V64.7382C232.753 64.4301 232.666 64.1913 232.492 64.022C232.32 63.8527 232.063 63.768 231.722 63.768C231.367 63.768 231.087 63.8468 230.883 64.0044C230.681 64.1596 230.541 64.3325 230.463 64.523L229.472 64.2972C229.589 63.9679 229.761 63.7021 229.987 63.4999C230.215 63.2952 230.477 63.1471 230.773 63.0554C231.07 62.9613 231.381 62.9142 231.708 62.9142C231.925 62.9142 232.154 62.9401 232.396 62.9919C232.641 63.0412 232.869 63.133 233.081 63.267C233.295 63.4011 233.47 63.5928 233.606 63.8421C233.743 64.089 233.811 64.4101 233.811 64.8052V68.4037H232.781V67.6628H232.738C232.67 67.7992 232.568 67.9333 232.432 68.065C232.295 68.1967 232.12 68.3061 231.906 68.3931C231.692 68.4801 231.436 68.5236 231.137 68.5236ZM231.366 67.6769C231.658 67.6769 231.907 67.6193 232.114 67.504C232.323 67.3888 232.482 67.2383 232.59 67.0525C232.701 66.8643 232.756 66.6632 232.756 66.4492V65.7507C232.718 65.7883 232.646 65.8236 232.537 65.8565C232.432 65.8871 232.31 65.9141 232.174 65.9377C232.038 65.9588 231.905 65.9788 231.775 65.9976C231.646 66.0141 231.538 66.0282 231.451 66.04C231.246 66.0658 231.059 66.1093 230.89 66.1705C230.723 66.2316 230.589 66.3198 230.488 66.4351C230.389 66.548 230.339 66.6985 230.339 66.8867C230.339 67.1477 230.436 67.3453 230.629 67.4793C230.822 67.6111 231.067 67.6769 231.366 67.6769ZM235.782 68.4037V62.9848H236.802V63.8456H236.858C236.957 63.554 237.131 63.3246 237.38 63.1577C237.632 62.9883 237.917 62.9037 238.234 62.9037C238.3 62.9037 238.378 62.906 238.467 62.9107C238.559 62.9154 238.63 62.9213 238.682 62.9283V63.9373C238.64 63.9256 238.565 63.9126 238.456 63.8985C238.348 63.8821 238.24 63.8738 238.132 63.8738C237.882 63.8738 237.66 63.9267 237.465 64.0326C237.272 64.1361 237.119 64.2807 237.006 64.4665C236.894 64.65 236.837 64.8593 236.837 65.0945V68.4037H235.782ZM243.011 62.9848V63.8315H240.051V62.9848H243.011ZM240.845 61.6865H241.9V66.8126C241.9 67.0172 241.93 67.1712 241.991 67.2747C242.053 67.3759 242.131 67.4452 242.228 67.4829C242.327 67.5182 242.434 67.5358 242.549 67.5358C242.633 67.5358 242.708 67.5299 242.771 67.5182C242.835 67.5064 242.884 67.497 242.919 67.4899L243.11 68.3613C243.049 68.3848 242.962 68.4084 242.849 68.4319C242.736 68.4578 242.595 68.4719 242.425 68.4742C242.148 68.4789 241.889 68.4295 241.649 68.326C241.409 68.2226 241.215 68.0626 241.067 67.8462C240.919 67.6299 240.845 67.3582 240.845 67.0313V61.6865Z" fill="#8FC442"/>
<path d="M70.841 19.878L66.0058 27.9367L77.0193 33.5777C77.5118 32.8614 79.034 30.4348 81.183 26.4592C86.233 28.6082 88.4805 25.1161 88.973 23.1015V8.32727C88.973 2.84739 84.5855 3.35777 82.3918 4.29794C78.0938 6.67077 69.1756 11.7925 67.8862 13.2968C66.2745 16.4128 69.1845 18.9826 70.841 19.878Z" fill="#42ADE4"/>
<path fill-rule="evenodd" clip-rule="evenodd" d="M54.694 46.797L53.552 48.8596C51.786 52.049 52.9399 56.0661 56.1293 57.8321C59.3187 59.5981 63.3359 58.4442 65.1019 55.2548L80.9015 26.7202C85.5837 28.4177 87.6921 25.0992 88.1672 23.1556V8.38142C88.1672 2.90154 83.7797 3.41192 81.5859 4.3521C77.288 6.72492 68.3697 11.8466 67.0804 13.3509C65.5779 16.2556 68.0047 18.6856 69.6826 19.7272L58.2158 40.4366V43.9801C58.0661 44.6142 57.3826 45.7133 55.8469 45.0369C55.3483 45.8441 54.9448 46.435 54.694 46.797ZM52.5683 42.8838L45.7612 55.1777C43.9952 58.3671 39.9781 59.5211 36.7887 57.7551C33.8978 56.1544 32.6792 52.7043 33.7914 49.6975C35.1589 50.1632 35.7785 49.1467 35.9202 48.5467V45.6962L49.3076 21.5183C51.0735 18.3289 55.0907 17.1749 58.2801 18.9409C61.4695 20.7069 62.6234 24.724 60.8574 27.9134L54.7703 38.907C53.4972 39.6683 52.0787 40.5618 51.8034 40.8941C51.3544 41.7927 52.0596 42.5469 52.5683 42.8838ZM39.4206 31.2139L32.71 43.3333C31.3823 44.1217 29.8002 45.1077 29.5078 45.4607C29.0229 46.431 29.884 47.2331 30.3902 47.5229L29.933 48.3487L28.936 50.0685L28.9706 50.0868L26.1518 55.1777C24.3858 58.3671 20.3687 59.5211 17.1793 57.7551C16.424 57.3369 15.7829 56.7925 15.2677 56.1627C14.8502 55.7163 14.4883 55.204 14.1984 54.6312L1.83084 30.19C0.184809 26.9371 1.48746 22.9657 4.74039 21.3197C7.99333 19.6736 11.9647 20.9763 13.6108 24.2292L20.5757 37.9936L27.8707 24.8187C29.6367 21.6293 33.6538 20.4754 36.8432 22.2414C40.0326 24.0074 41.1865 28.0245 39.4206 31.2139Z" fill="#42ADE4"/>
<path d="M39.1437 40.0246C36.4575 41.0991 35.7411 38.8606 35.7859 37.607C35.4725 38.2786 34.416 40.347 32.6968 43.2481C35.8128 42.0662 36.1441 44.3674 35.9202 45.6657C36.6813 44.3226 38.499 41.314 39.1437 40.0246Z" fill="#42ADE4"/>
<path d="M61.0363 35.4581C58.3501 36.5326 57.7681 34.5627 57.8128 33.3091C57.4995 33.9807 56.4429 36.049 54.7237 38.9502C57.8397 37.7682 58.2158 39.4874 58.2158 40.6962C58.9769 39.3531 60.3916 36.7475 61.0363 35.4581Z" fill="#42ADE4"/>
</svg>
